<?xml version="1.0" standalone="no"?>
<!DOCTYPE svg PUBLIC "-//W3C//DTD SVG 20010904//EN"
 "http://www.w3.org/TR/2001/REC-SVG-20010904/DTD/svg10.dtd">
<svg version="1.0" xmlns="http://www.w3.org/2000/svg"
 width="400.000000pt" height="400.000000pt" viewBox="0 0 400.000000 400.000000"
 preserveAspectRatio="xMidYMid meet">

<g transform="translate(0.000000,400.000000) scale(0.100000,-0.100000)"
fill="#000000" stroke="none">
<path d="M0 2000 l0 -2000 2000 0 2000 0 0 2000 0 2000 -2000 0 -2000 0 0
-2000z m2005 1690 c7 0 15 6 18 13 2 6 8 9 12 5 4 -4 0 -14 -9 -23 -9 -9 -16
-22 -16 -28 -1 -7 -7 -1 -15 13 -8 14 -14 19 -15 13 0 -15 -30 -18 -30 -3 0 6
7 10 15 10 8 0 15 6 16 13 0 10 2 10 6 0 2 -7 11 -13 18 -13z m-12 -93 c-9
-16 -24 9 -17 28 7 18 8 18 14 -1 4 -10 5 -23 3 -27z m97 33 c0 -5 -7 -10 -15
-10 -23 0 -18 -15 15 -40 24 -18 27 -26 19 -41 -5 -11 -16 -19 -24 -19 -8 0
-15 -4 -15 -10 0 -5 5 -10 10 -10 6 0 10 -9 10 -20 0 -11 -4 -20 -10 -20 -5 0
-10 9 -10 20 0 11 -5 20 -11 20 -13 0 -39 25 -39 38 0 6 6 13 13 15 9 4 9 8
-2 15 -15 11 -16 11 24 59 12 15 35 17 35 3z m420 -25 c0 -19 -4 -35 -10 -35
-5 0 -10 9 -10 19 0 11 -3 26 -6 35 -4 11 -1 16 10 16 12 0 16 -10 16 -35z
m-560 0 c0 -16 -35 -21 -44 -6 -8 12 4 21 26 21 10 0 18 -7 18 -15z m-190 -34
c0 -17 -4 -33 -10 -36 -6 -4 -10 8 -10 29 0 20 5 36 10 36 6 0 10 -13 10 -29z
m-280 -1 c0 -11 -4 -20 -10 -20 -5 0 -10 9 -10 20 0 11 5 20 10 20 6 0 10 -9
10 -20z m490 10 c0 -5 7 -10 15 -10 8 0 15 -4 15 -10 0 -5 -4 -10 -8 -10 -5 0
-15 -11 -22 -25 -10 -19 -16 -22 -22 -13 -11 17 -29 -9 -25 -37 3 -30 -37 -27
-41 3 -2 12 1 22 7 22 6 0 11 7 11 15 0 8 5 15 11 15 8 0 9 4 0 13 -13 16 -5
27 21 27 10 0 18 5 18 10 0 6 5 10 10 10 6 0 10 -4 10 -10z m280 -32 c0 -18
-2 -20 -9 -8 -6 8 -7 18 -5 22 9 14 14 9 14 -14z m-95 -7 c3 -5 1 -12 -5 -16
-5 -3 -10 1 -10 9 0 18 6 21 15 7z m-270 -31 c-3 -5 -15 -10 -26 -10 -10 0
-19 5 -19 10 0 6 12 10 26 10 14 0 23 -4 19 -10z m625 0 c0 -5 -4 -10 -10 -10
-5 0 -10 5 -10 10 0 6 5 10 10 10 6 0 10 -4 10 -10z m-337 -36 c30 7 36 -7 13
-30 -8 -7 -12 -23 -9 -33 3 -11 -2 -27 -10 -36 -21 -20 -27 -19 -27 6 0 22
-22 49 -39 49 -6 0 -11 5 -11 10 0 6 5 10 10 10 6 0 10 8 10 18 0 27 11 34 25
15 8 -11 20 -14 38 -9z m-323 -10 c0 -8 -5 -12 -10 -9 -6 4 -8 11 -5 16 9 14
15 11 15 -7z m-950 -39 c0 -14 -4 -25 -10 -25 -5 0 -10 11 -10 25 0 14 5 25
10 25 6 0 10 -11 10 -25z m470 5 c0 -11 -4 -20 -10 -20 -5 0 -10 2 -10 4 0 2
-3 11 -6 20 -4 11 -1 16 10 16 9 0 16 -8 16 -20z m300 10 c0 -5 -7 -10 -15
-10 -8 0 -15 5 -15 10 0 6 7 10 15 10 8 0 15 -4 15 -10z m140 4 c0 -3 -7 -12
-15 -21 -20 -19 -32 -10 -14 11 14 15 29 21 29 10z m420 -4 c0 -5 -4 -10 -10
-10 -5 0 -10 5 -10 10 0 6 5 10 10 10 6 0 10 -4 10 -10z m140 2 c0 -4 -9 -13
-20 -20 -22 -13 -23 -12 -14 12 6 16 34 23 34 8z m-770 -22 c0 -5 -4 -10 -10
-10 -5 0 -10 5 -10 10 0 6 5 10 10 10 6 0 10 -4 10 -10z m280 1 c0 -5 -7 -11
-15 -15 -8 -3 -15 -15 -15 -26 0 -12 -4 -19 -9 -16 -10 6 -9 20 4 49 7 17 35
24 35 8z m540 -1 c0 -5 9 -10 20 -10 15 0 20 -7 20 -25 0 -14 -4 -25 -10 -25
-5 0 -10 -4 -10 -10 0 -5 7 -10 15 -10 8 0 15 -7 15 -15 0 -8 -7 -15 -15 -15
-8 0 -15 7 -15 15 0 8 -5 15 -10 15 -6 0 -10 6 -9 13 4 33 -2 58 -13 54 -7 -2
-12 -14 -10 -27 5 -30 -6 -70 -18 -70 -14 0 -12 88 3 105 14 17 37 20 37 5z
m-847 -72 c-4 -55 -28 -92 -44 -67 -14 23 -10 43 11 62 11 9 20 21 20 27 0 14
-27 12 -33 -2 -2 -7 -8 -10 -12 -6 -11 10 33 48 49 42 8 -3 11 -22 9 -56z
m1117 47 c0 -8 -4 -15 -10 -15 -5 0 -10 7 -10 15 0 8 5 15 10 15 6 0 10 -7 10
-15z m590 -10 c0 -14 -4 -25 -10 -25 -5 0 -10 11 -10 25 0 14 5 25 10 25 6 0
10 -11 10 -25z m-1510 -15 c0 -5 -7 -10 -15 -10 -8 0 -15 5 -15 10 0 6 7 10
15 10 8 0 15 -4 15 -10z m746 -4 c8 -8 14 -17 14 -21 0 -8 27 -35 35 -35 13 0
37 -31 30 -38 -4 -4 -10 -1 -12 6 -3 6 -10 12 -17 12 -14 0 -56 45 -56 60 0 6
-4 10 -10 10 -5 0 -10 5 -10 10 0 14 9 12 26 -4z m-686 -16 c0 -5 -4 -10 -8
-10 -9 0 -32 -59 -32 -83 0 -9 -7 -17 -15 -17 -8 0 -15 -4 -15 -10 0 -5 -11
-10 -24 -10 -27 0 -44 29 -24 42 19 12 28 10 28 -7 0 -8 5 -15 10 -15 6 0 10
11 10 25 0 14 -4 25 -10 25 -5 0 -10 5 -10 11 0 7 11 9 28 5 15 -3 22 -3 16 0
-6 2 -9 16 -6 29 3 18 11 25 28 25 13 0 24 -4 24 -10z m450 -52 c0 -5 -7 -8
-15 -8 -8 0 -15 -4 -15 -10 0 -5 -4 -10 -8 -10 -5 0 -9 7 -9 15 0 8 4 12 8 9
4 -2 11 5 14 17 6 17 9 19 16 8 5 -8 9 -17 9 -21z m-570 2 c0 -5 -4 -10 -10
-10 -5 0 -10 5 -10 10 0 6 5 10 10 10 6 0 10 -4 10 -10z m610 0 c0 -5 -4 -10
-10 -10 -5 0 -10 5 -10 10 0 6 5 10 10 10 6 0 10 -4 10 -10z m210 -20 c0 -5
-4 -10 -10 -10 -5 0 -10 5 -10 10 0 6 5 10 10 10 6 0 10 -4 10 -10z m-1120
-25 c0 -8 -4 -15 -10 -15 -5 0 -10 7 -10 15 0 8 5 15 10 15 6 0 10 -7 10 -15z
m89 -53 c-11 -4 -59 43 -59 58 0 7 15 -3 34 -22 19 -18 30 -34 25 -36z m824 6
c-3 -16 -1 -34 5 -40 7 -9 6 -17 -4 -26 -8 -7 -14 -8 -14 -2 0 5 -7 10 -15 10
-8 0 -15 9 -15 20 0 10 -7 23 -16 28 -15 8 -15 12 0 41 17 31 17 31 40 14 19
-14 23 -24 19 -45z m297 22 c0 -34 -5 -37 -26 -15 -9 8 -11 15 -5 15 6 0 11 7
11 15 0 8 5 15 10 15 6 0 10 -13 10 -30z m-930 -25 c0 -23 5 -35 14 -35 9 0
12 -7 9 -20 -3 -11 -14 -20 -24 -20 -11 0 -19 -6 -19 -14 0 -8 -6 -17 -12 -19
-10 -4 -9 -8 2 -16 19 -13 6 -25 -28 -26 -26 0 -27 -2 -28 -51 0 -67 -28 -98
-79 -88 -35 6 -49 24 -19 24 35 0 62 62 32 73 -7 2 -9 8 -5 13 4 5 13 2 18 -6
8 -12 12 -12 16 -2 2 7 11 19 19 26 8 8 14 18 14 23 0 5 9 15 20 23 10 8 22
26 25 42 4 15 11 30 16 33 12 8 12 55 -1 55 -5 0 -10 5 -10 10 0 6 9 10 20 10
16 0 20 -7 20 -35z m680 25 c0 -5 -7 -10 -15 -10 -8 0 -15 5 -15 10 0 6 7 10
15 10 8 0 15 -4 15 -10z m-930 -14 c0 -3 -4 -8 -10 -11 -5 -3 -10 -1 -10 4 0
6 5 11 10 11 6 0 10 -2 10 -4z m1037 -18 c-3 -8 -6 -5 -6 6 -1 11 2 17 5 13 3
-3 4 -12 1 -19z m53 12 c0 -5 -4 -10 -10 -10 -5 0 -10 5 -10 10 0 6 5 10 10
10 6 0 10 -4 10 -10z m-1160 -30 c0 -5 -4 -10 -10 -10 -5 0 -10 5 -10 10 0 6
5 10 10 10 6 0 10 -4 10 -10z m270 0 c0 -5 -2 -10 -4 -10 -3 0 -8 5 -11 10 -3
6 -1 10 4 10 6 0 11 -4 11 -10z m750 0 c0 -5 -4 -10 -10 -10 -5 0 -10 5 -10
10 0 6 5 10 10 10 6 0 10 -4 10 -10z m210 0 c0 -5 -4 -10 -10 -10 -5 0 -10 5
-10 10 0 6 5 10 10 10 6 0 10 -4 10 -10z m520 -25 c0 -33 -12 -46 -25 -25 -8
12 5 60 16 60 5 0 9 -16 9 -35z m-450 5 c0 -5 -4 -10 -10 -10 -5 0 -10 5 -10
10 0 6 5 10 10 10 6 0 10 -4 10 -10z m-1770 -26 c0 -8 5 -12 10 -9 6 4 10 -7
10 -24 0 -17 -4 -31 -10 -31 -5 0 -10 11 -10 24 0 14 -4 28 -10 31 -5 3 -10
10 -10 16 0 5 5 9 10 9 6 0 10 -7 10 -16z m370 1 c0 -17 -2 -18 -25 -9 -13 5
-14 8 -3 15 19 13 28 11 28 -6z m820 -42 c0 -17 5 -35 10 -38 6 -3 10 -18 10
-32 0 -14 7 -31 15 -37 14 -10 14 -17 -2 -61 -10 -28 -21 -51 -25 -53 -5 -2
-8 -23 -8 -46 0 -28 -6 -47 -18 -57 -17 -15 -18 -13 -15 40 2 52 2 54 -8 22
-8 -27 -13 -31 -20 -20 -12 19 -11 79 1 79 6 0 10 29 10 68 0 44 5 75 15 88 8
10 15 39 15 64 0 33 3 41 10 30 5 -8 10 -29 10 -47z m314 48 c3 -5 0 -11 -8
-14 -15 -6 -26 1 -26 15 0 11 27 10 34 -1z m366 0 c0 -6 -4 -12 -9 -15 -13 -8
-42 4 -35 15 7 12 44 12 44 0z m-820 -66 c0 -54 -13 -98 -37 -123 -7 -7 -13
-20 -13 -28 0 -8 -4 -14 -10 -14 -5 0 -10 -8 -10 -18 0 -10 -7 -27 -15 -38 -8
-10 -15 -28 -15 -39 -1 -17 -2 -18 -10 -4 -10 17 -2 59 11 59 5 0 9 16 9 35 0
19 5 35 10 35 6 0 10 16 10 35 0 25 4 35 16 35 10 0 13 6 10 18 -4 10 1 27 9
38 8 10 15 32 15 47 0 16 4 26 10 22 6 -3 10 -30 10 -60z m-1290 35 c0 -5 -4
-10 -10 -10 -5 0 -10 5 -10 10 0 6 5 10 10 10 6 0 10 -4 10 -10z m546 -4 c16
-17 19 -46 3 -46 -5 0 -8 4 -5 9 3 5 -1 11 -9 15 -8 3 -15 12 -15 21 0 19 7
19 26 1z m394 4 c0 -5 -4 -10 -10 -10 -5 0 -10 5 -10 10 0 6 5 10 10 10 6 0
10 -4 10 -10z m1230 0 c0 -5 -4 -10 -10 -10 -5 0 -10 5 -10 10 0 6 5 10 10 10
6 0 10 -4 10 -10z m-435 -46 c3 -43 -9 -62 -27 -43 -34 34 -31 82 5 77 14 -2
20 -12 22 -34z m485 26 c0 -5 7 -10 15 -10 16 0 20 -15 7 -24 -5 -3 -16 4 -25
15 -20 22 -21 29 -7 29 6 0 10 -4 10 -10z m-1750 -45 c0 -39 -4 -42 -28 -18
-12 12 -13 18 -4 21 6 2 12 10 12 18 0 8 5 14 10 14 6 0 10 -16 10 -35z m279
26 c9 -6 21 -5 31 1 20 13 54 3 45 -12 -3 -5 -15 -10 -26 -10 -21 0 -26 -16
-6 -23 7 -2 8 -8 3 -13 -5 -5 -11 -4 -13 4 -3 6 -11 12 -19 12 -8 0 -14 7 -14
15 0 8 -4 15 -10 15 -5 0 -10 -7 -10 -15 0 -8 5 -15 10 -15 23 0 8 -18 -18
-22 -19 -3 -29 0 -29 9 0 7 4 13 9 13 4 0 8 11 8 25 0 26 14 31 39 16z m161
-1 c0 -5 -4 -10 -10 -10 -5 0 -10 5 -10 10 0 6 5 10 10 10 6 0 10 -4 10 -10z
m1080 -1 c0 -13 -25 -39 -38 -39 -6 0 -12 -6 -15 -12 -2 -8 -8 -9 -13 -4 -5 5
-4 11 4 13 13 5 17 33 5 33 -5 0 -20 -7 -35 -14 -24 -13 -28 -13 -28 0 0 8 -8
14 -17 14 -15 0 -16 2 -3 10 21 13 140 13 140 -1z m295 -44 c14 -13 25 -29 25
-36 0 -7 -13 2 -30 19 -16 18 -30 34 -30 37 0 11 12 4 35 -20z m-1860 -5 c3
-5 0 -10 -9 -10 -8 0 -16 -6 -19 -12 -2 -7 -8 -10 -12 -6 -7 7 14 37 27 38 4
0 10 -4 13 -10z m185 0 c0 -5 -4 -10 -10 -10 -5 0 -10 5 -10 10 0 6 5 10 10
10 6 0 10 -4 10 -10z m960 0 c0 -5 -4 -10 -10 -10 -5 0 -10 5 -10 10 0 6 5 10
10 10 6 0 10 -4 10 -10z m440 -15 c0 -27 -6 -30 -29 -16 -12 8 -12 11 0 25 20
22 29 20 29 -9z m-1890 -20 c0 -14 -4 -25 -10 -25 -5 0 -10 11 -10 25 0 14 5
25 10 25 6 0 10 -11 10 -25z m1680 0 c0 -14 -4 -25 -10 -25 -5 0 -10 -12 -10
-26 0 -16 5 -24 13 -21 6 2 12 8 12 13 2 25 18 54 31 54 8 0 14 -4 14 -10 0
-5 -7 -10 -15 -10 -21 0 -19 -36 3 -58 9 -9 25 -16 35 -14 22 4 22 -5 0 -26
-12 -12 -18 -13 -21 -4 -2 6 -10 12 -17 12 -7 0 -16 6 -19 13 -3 6 -3 2 0 -10
8 -34 -12 -28 -25 7 -5 17 -15 30 -20 30 -6 0 -11 11 -11 25 0 14 5 25 10 25
6 0 10 7 10 15 0 8 -5 15 -11 15 -5 0 -7 5 -4 10 12 20 35 10 35 -15z m420 -6
c0 -16 -30 -43 -38 -34 -4 4 -1 10 6 12 6 3 12 11 12 19 0 8 5 14 10 14 6 0
10 -5 10 -11z m-1840 -9 c0 -5 -4 -10 -10 -10 -5 0 -10 5 -10 10 0 6 5 10 10
10 6 0 10 -4 10 -10z m50 0 c0 -5 -7 -10 -15 -10 -8 0 -15 5 -15 10 0 6 7 10
15 10 8 0 15 -4 15 -10z m1510 0 c0 -5 -4 -10 -10 -10 -5 0 -10 5 -10 10 0 6
5 10 10 10 6 0 10 -4 10 -10z m400 0 c0 -5 -4 -10 -10 -10 -5 0 -10 5 -10 10
0 6 5 10 10 10 6 0 10 -4 10 -10z m-1840 -20 c0 -5 -7 -10 -15 -10 -8 0 -15 5
-15 10 0 6 7 10 15 10 8 0 15 -4 15 -10z m810 -51 c0 -37 -4 -58 -10 -54 -5 3
-10 31 -10 61 0 30 5 54 10 54 6 0 10 -27 10 -61z m280 46 c0 -9 11 -33 25
-55 14 -22 25 -46 25 -55 0 -8 5 -15 10 -15 14 0 13 -67 -2 -72 -6 -2 -11 -18
-11 -36 0 -39 -14 -43 -19 -4 -2 15 -7 27 -13 27 -5 0 -11 -12 -13 -27 -2 -16
-7 -28 -12 -28 -5 0 -9 63 -9 140 -1 89 2 140 9 140 5 0 10 -7 10 -15z m560 5
c0 -5 -4 -10 -10 -10 -5 0 -10 5 -10 10 0 6 5 10 10 10 6 0 10 -4 10 -10z
m115 0 c3 -5 1 -10 -4 -10 -6 0 -11 5 -11 10 0 6 2 10 4 10 3 0 8 -4 11 -10z
m-1914 -23 c-1 -12 -15 -9 -19 4 -3 6 1 10 8 8 6 -3 11 -8 11 -12z m1519 -2
c0 -8 -4 -15 -10 -15 -5 0 -10 7 -10 15 0 8 5 15 10 15 6 0 10 -7 10 -15z
m-1440 -25 c0 -5 -7 -10 -15 -10 -8 0 -15 5 -15 10 0 6 7 10 15 10 8 0 15 -4
15 -10z m1070 -19 c0 -37 -16 -49 -24 -18 -9 35 -7 47 9 47 10 0 15 -10 15
-29z m743 23 c7 -8 -3 -34 -13 -34 -5 0 -8 9 -7 20 1 20 8 25 20 14z m47 -4
c0 -5 -4 -10 -10 -10 -5 0 -10 5 -10 10 0 6 5 10 10 10 6 0 10 -4 10 -10z
m-1399 -13 c-1 -4 -1 -16 -1 -27 0 -11 -4 -20 -10 -20 -5 0 -10 14 -10 31 0
17 5 29 11 27 6 -2 10 -7 10 -11z m-181 -7 c0 -5 -22 -10 -50 -10 -27 0 -50 5
-50 10 0 6 23 10 50 10 28 0 50 -4 50 -10z m110 0 c0 -5 -4 -10 -10 -10 -5 0
-10 5 -10 10 0 6 5 10 10 10 6 0 10 -4 10 -10z m280 -44 c0 -30 5 -58 10 -61
6 -3 10 -31 10 -61 0 -30 -4 -54 -10 -54 -5 0 -10 16 -10 35 0 19 -4 35 -10
35 -5 0 -10 -7 -10 -15 0 -8 -4 -15 -8 -15 -5 0 -13 -10 -19 -22 l-10 -23 -7
23 c-4 12 -12 22 -17 22 -5 0 -9 7 -9 15 0 8 5 15 10 15 6 0 10 8 10 18 0 10
7 27 15 38 8 10 15 27 15 37 0 9 5 17 10 17 6 0 10 11 10 25 0 14 5 25 10 25
6 0 10 -24 10 -54z m920 44 c0 -5 -7 -10 -15 -10 -8 0 -15 5 -15 10 0 6 7 10
15 10 8 0 15 -4 15 -10z m46 -4 c16 -17 19 -72 4 -81 -6 -3 -10 5 -10 18 0 14
-7 27 -15 31 -17 6 -21 46 -4 46 6 0 17 -6 25 -14z m-1216 -36 c0 -10 6 -20
13 -23 8 -3 6 -9 -7 -19 -17 -13 -17 -15 -2 -21 20 -8 21 -27 1 -27 -8 0 -15
-4 -15 -10 0 -5 -4 -10 -9 -10 -10 0 -14 92 -5 123 7 22 24 12 24 -13z m-240
10 c0 -5 7 -10 15 -10 8 0 15 -4 15 -10 0 -5 -7 -10 -15 -10 -11 0 -14 -7 -9
-25 6 -24 4 -25 -35 -25 -23 0 -41 -4 -41 -10 0 -5 -4 -10 -10 -10 -5 0 -10 7
-10 16 0 11 -6 14 -22 8 -13 -3 -24 -11 -26 -15 -5 -12 -42 -11 -42 1 0 6 5
10 10 10 6 0 10 7 10 15 0 11 7 14 26 11 15 -3 47 -3 70 1 40 5 44 8 44 34 0
16 5 29 10 29 6 0 10 -4 10 -10z m100 -20 c0 -5 -6 -10 -14 -10 -8 0 -16 -6
-19 -12 -2 -7 -8 -10 -12 -6 -9 8 16 37 33 38 6 0 12 -4 12 -10z m90 0 c0 -5
-4 -10 -10 -10 -5 0 -10 5 -10 10 0 6 5 10 10 10 6 0 10 -4 10 -10z m1120 0
c0 -5 -4 -10 -10 -10 -5 0 -10 5 -10 10 0 6 5 10 10 10 6 0 10 -4 10 -10z
m-1540 -20 c0 -5 -11 -10 -25 -10 -14 0 -25 5 -25 10 0 6 11 10 25 10 14 0 25
-4 25 -10z m1140 -25 c0 -19 -4 -35 -10 -35 -5 0 -10 16 -10 35 0 19 5 35 10
35 6 0 10 -16 10 -35z m330 24 c0 -5 3 -8 8 -6 4 3 13 -1 20 -9 7 -8 8 -14 2
-14 -5 0 -10 -13 -10 -30 0 -16 -4 -30 -10 -30 -5 0 -10 7 -10 15 0 8 -7 15
-15 15 -10 0 -15 11 -15 35 0 24 5 35 15 35 8 0 15 -5 15 -11z m190 1 c0 -5
-7 -10 -15 -10 -8 0 -15 5 -15 10 0 6 7 10 15 10 8 0 15 -4 15 -10z m320 0 c0
-5 -4 -10 -10 -10 -5 0 -10 5 -10 10 0 6 5 10 10 10 6 0 10 -4 10 -10z m-118
-25 c-1 -6 -16 -10 -33 -10 -16 0 -34 -7 -39 -15 -7 -10 -12 -12 -17 -4 -5 6
-23 14 -40 17 -25 5 -33 3 -33 -8 0 -8 -9 -15 -20 -15 -31 0 -24 16 14 32 39
15 172 17 168 3z m168 -10 c0 -14 -4 -25 -10 -25 -5 0 -10 11 -10 25 0 14 5
25 10 25 6 0 10 -11 10 -25z m-1630 11 c0 -3 -4 -8 -10 -11 -5 -3 -10 -1 -10
4 0 6 5 11 10 11 6 0 10 -2 10 -4z m-870 -36 c0 -11 -4 -20 -10 -20 -5 0 -10
9 -10 20 0 11 5 20 10 20 6 0 10 -9 10 -20z m350 14 c0 -3 -7 -12 -15 -21 -20
-19 -32 -10 -14 11 14 15 29 21 29 10z m70 -4 c0 -5 -9 -10 -20 -10 -11 0 -20
5 -20 10 0 6 9 10 20 10 11 0 20 -4 20 -10z m470 -10 c0 -11 -4 -20 -8 -20 -4
0 -8 9 -9 20 -1 11 2 20 8 20 5 0 9 -9 9 -20z m1120 -4 c0 -14 -4 -27 -9 -30
-12 -8 -22 20 -15 39 9 23 24 18 24 -9z m350 4 c0 -11 -4 -20 -10 -20 -5 0
-10 9 -10 20 0 11 5 20 10 20 6 0 10 -9 10 -20z m527 -12 c-3 -7 -5 -2 -5 12
0 14 2 19 5 13 2 -7 2 -19 0 -25z m-2314 -5 c-7 -3 -13 -11 -13 -19 0 -8 -4
-14 -10 -14 -5 0 -10 5 -10 11 0 14 33 40 40 32 3 -3 -1 -8 -7 -10z m82 7 c3
-5 1 -10 -4 -10 -6 0 -11 5 -11 10 0 6 2 10 4 10 3 0 8 -4 11 -10z m75 0 c0
-5 -7 -10 -15 -10 -8 0 -15 5 -15 10 0 6 7 10 15 10 8 0 15 -4 15 -10z m1840
0 c0 -5 -4 -10 -10 -10 -5 0 -10 5 -10 10 0 6 5 10 10 10 6 0 10 -4 10 -10z
m-2274 -37 c-10 -10 -19 5 -10 18 6 11 8 11 12 0 2 -7 1 -15 -2 -18z m574 -4
c0 -11 5 -19 10 -19 6 0 10 5 10 10 0 6 5 10 10 10 6 0 10 -7 10 -15 0 -8 -4
-15 -10 -15 -5 0 -10 -23 -10 -51 0 -49 -15 -79 -39 -79 -6 0 -11 -7 -11 -15
0 -17 -2 -18 -24 -9 -17 7 -22 44 -6 44 6 0 10 16 10 35 0 24 5 35 15 35 8 0
15 -9 15 -20 0 -35 16 -21 17 15 1 19 -3 35 -8 35 -5 0 -9 9 -9 20 0 11 -7 20
-15 20 -15 0 -20 12 -9 22 11 12 44 -5 44 -23z m1180 16 c0 -8 -4 -15 -10 -15
-5 0 -10 7 -10 15 0 8 5 15 10 15 6 0 10 -7 10 -15z m218 -3 c2 -7 -3 -12 -12
-12 -9 0 -16 7 -16 16 0 17 22 14 28 -4z m322 -2 c0 -5 -4 -10 -10 -10 -5 0
-10 5 -10 10 0 6 5 10 10 10 6 0 10 -4 10 -10z m-2170 -20 c0 -5 -4 -10 -10
-10 -5 0 -10 5 -10 10 0 6 5 10 10 10 6 0 10 -4 10 -10z m240 0 c0 -5 -7 -10
-15 -10 -8 0 -15 5 -15 10 0 6 7 10 15 10 8 0 15 -4 15 -10z m740 -35 c0 -25
-4 -45 -10 -45 -5 0 -10 -11 -10 -25 0 -14 -4 -25 -10 -25 -5 0 -10 -6 -10
-14 0 -7 -7 -19 -15 -26 -8 -7 -15 -21 -15 -31 0 -11 -4 -19 -10 -19 -5 0 -10
-7 -10 -15 0 -8 -4 -15 -10 -15 -5 0 -10 -9 -10 -20 0 -11 -7 -20 -15 -20 -12
0 -15 13 -15 59 0 33 -4 63 -10 66 -15 9 -12 67 5 108 8 19 11 37 8 41 -4 3
-1 6 5 6 6 0 14 -27 18 -60 5 -50 10 -60 25 -60 15 0 19 8 19 38 0 26 9 47 28
69 15 18 30 33 35 33 4 0 7 -20 7 -45z m380 35 c0 -5 -4 -10 -10 -10 -5 0 -10
5 -10 10 0 6 5 10 10 10 6 0 10 -4 10 -10z m440 0 c0 -5 -4 -10 -10 -10 -5 0
-10 5 -10 10 0 6 5 10 10 10 6 0 10 -4 10 -10z m90 0 c0 -5 -4 -10 -10 -10 -5
0 -10 5 -10 10 0 6 5 10 10 10 6 0 10 -4 10 -10z m-1803 -47 c-3 -10 -5 -4 -5
12 0 17 2 24 5 18 2 -7 2 -21 0 -30z m193 17 c0 -11 -4 -20 -10 -20 -5 0 -10
9 -10 20 0 11 5 20 10 20 6 0 10 -9 10 -20z m120 4 c0 -8 -4 -12 -10 -9 -5 3
-10 10 -10 16 0 5 5 9 10 9 6 0 10 -7 10 -16z m668 4 c7 -7 12 -22 12 -35 0
-14 6 -23 15 -23 8 0 15 -6 15 -14 0 -7 7 -19 15 -26 12 -10 15 -9 15 6 0 11
7 28 15 38 8 11 15 30 15 43 0 13 5 23 10 23 6 0 10 -57 10 -150 0 -93 -4
-150 -10 -150 -5 0 -10 9 -10 20 0 11 -4 20 -10 20 -5 0 -10 11 -10 25 0 16
-6 25 -15 25 -9 0 -15 9 -15 25 0 14 -4 25 -10 25 -5 0 -10 9 -10 20 0 11 -4
20 -9 20 -5 0 -12 11 -15 25 -4 14 -11 25 -17 25 -6 0 -8 9 -4 20 4 13 1 22
-9 26 -9 3 -16 10 -16 15 0 13 24 11 38 -3z m528 -2 c8 -8 14 -19 14 -25 0 -6
5 -11 10 -11 6 0 10 -11 10 -25 0 -14 -4 -25 -10 -25 -5 0 -10 -7 -10 -16 0
-18 -28 -49 -37 -40 -3 3 -7 22 -9 43 -1 21 -7 39 -13 41 -14 5 -14 52 -1 52
6 0 10 -7 10 -15 0 -8 7 -15 15 -15 8 0 15 7 15 15 0 8 -4 15 -10 15 -5 0 -10
5 -10 10 0 14 9 12 26 -4z m64 -5 c0 -11 -4 -23 -10 -26 -6 -4 -10 5 -10 19 0
14 5 26 10 26 6 0 10 -9 10 -19z m280 9 c0 -5 -4 -10 -10 -10 -5 0 -10 5 -10
10 0 6 5 10 10 10 6 0 10 -4 10 -10z m-1240 -25 c0 -8 -4 -15 -10 -15 -5 0
-10 7 -10 15 0 8 5 15 10 15 6 0 10 -7 10 -15z m-490 -25 c0 -5 -4 -10 -10
-10 -5 0 -10 5 -10 10 0 6 5 10 10 10 6 0 10 -4 10 -10z m1104 -2 c5 -10 7
-10 12 0 7 14 34 16 34 2 0 -5 -6 -10 -14 -10 -8 0 -16 -6 -18 -12 -3 -9 -9
-8 -21 4 -9 9 -17 19 -17 22 0 11 18 6 24 -6z m526 2 c0 -5 -4 -10 -10 -10 -5
0 -10 5 -10 10 0 6 5 10 10 10 6 0 10 -4 10 -10z m-1930 -20 c0 -5 -4 -10 -10
-10 -5 0 -10 5 -10 10 0 6 5 10 10 10 6 0 10 -4 10 -10z m790 0 c0 -5 7 -10
16 -10 8 0 12 5 9 10 -4 6 5 10 19 10 14 0 26 -4 26 -10 0 -5 -4 -10 -10 -10
-5 0 -10 -7 -10 -15 0 -9 -9 -15 -25 -15 -16 0 -25 6 -25 15 0 8 -4 15 -10 15
-5 0 -10 5 -10 10 0 6 5 10 10 10 6 0 10 -4 10 -10z m-930 -24 c0 -3 -4 -8
-10 -11 -5 -3 -10 -1 -10 4 0 6 5 11 10 11 6 0 10 -2 10 -4z m1903 -3 c-7 -2
-13 -11 -13 -19 0 -8 -4 -14 -10 -14 -5 0 -10 -8 -10 -18 0 -15 -32 -52 -45
-52 -3 0 -5 10 -5 21 0 22 65 90 84 88 6 0 5 -3 -1 -6z m-1603 -23 c0 -5 -15
-10 -34 -10 -19 0 -36 -6 -39 -12 -2 -7 -8 -10 -12 -6 -4 4 -1 14 6 22 15 17
79 22 79 6z m1940 0 c0 -5 -16 -10 -35 -10 -19 0 -35 5 -35 10 0 6 16 10 35
10 19 0 35 -4 35 -10z m190 0 c0 -5 -6 -10 -14 -10 -8 0 -16 -6 -19 -12 -2 -7
-8 -10 -12 -6 -9 8 16 37 33 38 6 0 12 -4 12 -10z m-2460 -25 c0 -8 -4 -15
-10 -15 -5 0 -10 7 -10 15 0 8 5 15 10 15 6 0 10 -7 10 -15z m70 -11 c0 -14
-4 -23 -10 -19 -5 3 -10 15 -10 26 0 10 5 19 10 19 6 0 10 -12 10 -26z m2500
5 c0 -11 -4 -17 -10 -14 -5 3 -10 13 -10 21 0 8 5 14 10 14 6 0 10 -9 10 -21z
m-2260 -29 c0 -14 -7 -20 -23 -20 -15 0 -29 -9 -37 -25 -16 -30 -30 -32 -30
-4 0 26 23 49 49 49 12 0 21 5 21 10 0 6 5 10 10 10 6 0 10 -9 10 -20z m370
-20 c0 -11 -4 -20 -10 -20 -5 0 -10 -7 -10 -15 0 -8 -9 -15 -20 -15 -15 0 -20
7 -20 25 0 18 5 25 20 25 11 0 20 5 20 10 0 6 5 10 10 10 6 0 10 -9 10 -20z
m1590 10 c0 -5 -4 -10 -10 -10 -5 0 -10 5 -10 10 0 6 5 10 10 10 6 0 10 -4 10
-10z m260 0 c0 -5 -4 -10 -10 -10 -5 0 -10 5 -10 10 0 6 5 10 10 10 6 0 10 -4
10 -10z m-610 -41 c0 -17 -4 -28 -10 -24 -5 3 -10 2 -10 -4 0 -5 5 -11 12 -13
8 -3 4 -12 -10 -26 -29 -29 -32 -28 -32 13 0 19 5 35 10 35 6 0 10 11 10 25 0
16 6 25 15 25 10 0 15 -10 15 -31z m400 21 c0 -5 -7 -10 -15 -10 -8 0 -15 5
-15 10 0 6 7 10 15 10 8 0 15 -4 15 -10z m180 0 c0 -5 -4 -10 -10 -10 -5 0
-10 5 -10 10 0 6 5 10 10 10 6 0 10 -4 10 -10z m100 -16 c0 -14 -5 -24 -11
-22 -6 2 -10 7 -10 11 1 4 1 14 1 22 0 8 5 15 10 15 6 0 10 -12 10 -26z m-260
-14 c0 -5 -4 -10 -10 -10 -5 0 -10 5 -10 10 0 6 5 10 10 10 6 0 10 -4 10 -10z
m140 0 c0 -5 -4 -10 -10 -10 -5 0 -10 5 -10 10 0 6 5 10 10 10 6 0 10 -4 10
-10z m-2450 -20 c0 -5 -4 -10 -10 -10 -5 0 -10 5 -10 10 0 6 5 10 10 10 6 0
10 -4 10 -10z m180 0 c0 -5 -4 -10 -10 -10 -5 0 -10 5 -10 10 0 6 5 10 10 10
6 0 10 -4 10 -10z m2075 0 c3 -5 1 -10 -4 -10 -6 0 -11 5 -11 10 0 6 2 10 4
10 3 0 8 -4 11 -10z m-1600 -19 c3 -5 1 -12 -5 -16 -6 -4 -8 -11 -5 -16 4 -5
-6 -9 -22 -9 -25 1 -26 2 -10 14 9 7 17 18 17 25 0 13 17 15 25 2z m1845 -1
c0 -5 -4 -10 -10 -10 -5 0 -10 5 -10 10 0 6 5 10 10 10 6 0 10 -4 10 -10z
m-2480 -30 c0 -5 -4 -10 -10 -10 -5 0 -10 5 -10 10 0 6 5 10 10 10 6 0 10 -4
10 -10z m380 0 c0 -5 -16 -10 -35 -10 -19 0 -35 -4 -35 -10 0 -5 -11 -10 -25
-10 -14 0 -25 -4 -25 -10 0 -5 -12 -10 -26 -10 -14 0 -23 4 -19 10 3 6 15 10
26 10 10 0 19 5 19 10 0 6 11 10 25 10 14 0 25 5 25 10 0 6 16 10 35 10 19 0
35 -4 35 -10z m1744 -4 c-3 -8 4 -24 15 -35 23 -23 28 -42 9 -38 -22 4 -48 31
-48 49 0 11 -8 18 -20 18 -11 0 -20 5 -20 10 0 6 16 10 35 10 26 0 33 -4 29
-14z m376 4 c0 -5 -4 -10 -10 -10 -5 0 -10 5 -10 10 0 6 5 10 10 10 6 0 10 -4
10 -10z m-310 -20 c0 -5 -9 -10 -20 -10 -11 0 -20 5 -20 10 0 6 9 10 20 10 11
0 20 -4 20 -10z m519 3 c0 -5 -4 -17 -9 -28 -8 -18 -9 -17 -9 8 -1 15 4 27 9
27 6 0 10 -3 9 -7z m-1992 -35 c-3 -7 -5 -2 -5 12 0 14 2 19 5 13 2 -7 2 -19
0 -25z m1153 7 c0 -8 -7 -15 -15 -15 -8 0 -15 -4 -15 -10 0 -5 7 -10 16 -10 9
0 14 -7 12 -17 -5 -26 -25 -26 -31 -1 -3 13 -9 33 -12 46 -6 19 -4 22 19 22
16 0 26 -5 26 -15z m350 5 c0 -5 -4 -10 -10 -10 -5 0 -10 5 -10 10 0 6 5 10
10 10 6 0 10 -4 10 -10z m-1610 -25 c0 -8 -9 -15 -20 -15 -22 0 -27 15 -7 23
21 9 27 7 27 -8z m-394 -9 c22 -22 17 -26 -30 -26 -26 0 -46 -5 -49 -12 -2 -7
-8 -10 -12 -6 -11 11 21 38 44 38 12 0 21 5 21 10 0 14 9 12 26 -4z m114 3 c0
-5 -9 -9 -20 -9 -11 0 -20 4 -20 8 0 4 9 8 20 9 11 1 20 -2 20 -8z m1950 -9
c8 -11 25 -20 37 -20 27 0 30 -15 6 -24 -11 -4 -22 -1 -29 8 -7 10 -26 16 -48
16 -20 0 -36 5 -36 10 0 6 7 10 15 10 8 0 15 5 15 10 0 17 25 11 40 -10z m270
10 c0 -5 -4 -10 -10 -10 -5 0 -10 5 -10 10 0 6 5 10 10 10 6 0 10 -4 10 -10z
m-2600 -20 c0 -5 -4 -10 -10 -10 -5 0 -10 5 -10 10 0 6 5 10 10 10 6 0 10 -4
10 -10z m881 -33 c-8 -8 -11 -3 -11 19 1 25 2 27 11 11 8 -14 8 -22 0 -30z
m169 33 c0 -5 -2 -10 -4 -10 -3 0 -8 5 -11 10 -3 6 -1 10 4 10 6 0 11 -4 11
-10z m910 0 c0 -5 -4 -10 -10 -10 -5 0 -10 5 -10 10 0 6 5 10 10 10 6 0 10 -4
10 -10z m-283 -52 c-3 -8 -6 -5 -6 6 -1 11 2 17 5 13 3 -3 4 -12 1 -19z
m-1507 2 c0 -5 -4 -10 -10 -10 -5 0 -10 5 -10 10 0 6 5 10 10 10 6 0 10 -4 10
-10z m2250 -10 c8 -11 20 -20 27 -20 14 0 17 -12 6 -23 -6 -6 -63 46 -63 58 0
12 17 4 30 -15z m-2280 -10 c0 -5 -4 -10 -10 -10 -5 0 -10 -6 -10 -14 0 -8 -6
-17 -12 -19 -10 -4 -10 -8 1 -15 12 -9 12 -13 -2 -26 -8 -9 -25 -16 -36 -16
-12 0 -21 -5 -21 -11 0 -14 -25 -39 -39 -39 -6 0 -11 -5 -11 -11 0 -5 -4 -7
-10 -4 -13 8 -13 35 1 35 11 0 39 25 39 35 0 10 48 55 60 55 5 0 10 5 10 10 0
13 22 39 33 40 4 0 7 -4 7 -10z m310 -6 c0 -8 5 -12 10 -9 6 4 10 -8 10 -29 0
-35 -20 -53 -20 -18 -1 41 -23 52 -109 52 -47 0 -81 4 -81 10 0 6 38 10 95 10
79 0 95 -3 95 -16z m1440 6 c0 -5 -4 -10 -10 -10 -5 0 -10 5 -10 10 0 6 5 10
10 10 6 0 10 -4 10 -10z m380 0 c0 -6 -33 -10 -79 -10 -61 0 -80 -3 -85 -15
-3 -8 -10 -15 -16 -15 -5 0 -10 7 -10 15 0 8 5 15 11 15 5 0 7 5 4 10 -4 6 27
10 84 10 54 0 91 -4 91 -10z m-2030 -20 c0 -5 -11 -10 -25 -10 -14 0 -25 5
-25 10 0 6 11 10 25 10 14 0 25 -4 25 -10z m445 -27 c2 -29 0 -33 -21 -33 -21
0 -24 5 -24 36 0 30 3 35 21 32 16 -2 22 -11 24 -35z m1255 27 c0 -5 -10 -10
-22 -10 -19 0 -20 2 -8 10 19 13 30 13 30 0z m420 0 c0 -5 -16 -10 -35 -10
-19 0 -35 5 -35 10 0 6 16 10 35 10 19 0 35 -4 35 -10z m-1453 -32 c-3 -7 -5
-2 -5 12 0 14 2 19 5 13 2 -7 2 -19 0 -25z m1173 -9 c0 -10 7 -19 15 -19 9 0
15 -9 15 -23 0 -12 9 -29 20 -37 11 -8 20 -20 20 -27 0 -7 5 -13 10 -13 15 0
63 -50 56 -57 -3 -4 -14 4 -25 15 -10 12 -22 22 -25 22 -9 0 -36 26 -36 35 0
10 -28 35 -39 35 -6 0 -11 11 -11 25 0 14 -4 25 -10 25 -5 0 -10 12 -10 26 0
14 4 23 10 19 6 -3 10 -15 10 -26z m-2240 -33 c0 -30 -4 -58 -10 -61 -6 -4
-10 17 -10 54 0 34 4 61 10 61 6 0 10 -24 10 -54z m330 44 c0 -5 -7 -10 -15
-10 -8 0 -15 5 -15 10 0 6 7 10 15 10 8 0 15 -4 15 -10z m1700 0 c0 -5 8 -10
17 -10 13 0 14 -3 6 -11 -9 -9 -16 -8 -27 4 -18 18 -20 27 -6 27 6 0 10 -4 10
-10z m540 0 c0 -15 48 -12 53 3 3 8 11 5 24 -10 11 -13 25 -23 32 -23 6 0 11
-6 11 -13 0 -7 9 -19 20 -27 11 -8 20 -23 20 -33 0 -9 7 -20 15 -23 17 -7 21
-44 4 -44 -19 0 -39 28 -39 55 0 27 -20 55 -39 55 -6 0 -11 7 -11 15 0 18 -16
20 -24 3 -5 -10 -7 -10 -12 0 -3 6 -17 12 -30 12 -13 0 -24 5 -24 10 0 6 -9
10 -19 10 -11 0 -23 5 -26 10 -4 6 5 10 19 10 14 0 26 -4 26 -10z m-1960 -56
c0 -18 -24 -44 -39 -44 -6 0 -11 -5 -11 -10 0 -12 -45 -60 -55 -60 -10 0 -35
-28 -35 -39 0 -6 -4 -11 -8 -11 -5 0 -18 -9 -31 -21 -12 -12 -25 -19 -28 -15
-7 7 22 36 36 36 6 0 11 5 11 10 0 12 45 60 55 60 8 0 35 27 35 35 0 10 28 35
39 35 6 0 11 12 11 26 0 14 4 23 10 19 6 -3 10 -13 10 -21z m1415 16 c3 -5 1
-10 -4 -10 -6 0 -11 5 -11 10 0 6 2 10 4 10 3 0 8 -4 11 -10z m5 -55 c0 -8 -4
-15 -10 -15 -5 0 -10 7 -10 15 0 8 5 15 10 15 6 0 10 -7 10 -15z m863 -15 c-7
-28 -13 -25 -13 6 0 14 4 23 9 20 5 -3 7 -15 4 -26z m-3123 -5 c0 -8 -4 -15
-10 -15 -5 0 -10 7 -10 15 0 8 5 15 10 15 6 0 10 -7 10 -15z m370 -55 c0 -33
-2 -60 -4 -60 -2 0 -11 -3 -20 -6 -12 -5 -16 1 -16 24 0 17 5 34 10 37 6 3 10
19 10 36 0 16 5 29 10 29 6 0 10 -27 10 -60z m-168 -12 c-9 -9 -12 -4 -11 23
0 32 1 33 11 11 8 -17 8 -26 0 -34z m918 42 c0 -5 -4 -10 -10 -10 -5 0 -10 5
-10 10 0 6 5 10 10 10 6 0 10 -4 10 -10z m40 -6 c0 -8 -4 -12 -10 -9 -5 3 -10
10 -10 16 0 5 5 9 10 9 6 0 10 -7 10 -16z m800 6 c0 -5 -4 -10 -10 -10 -5 0
-10 5 -10 10 0 6 5 10 10 10 6 0 10 -4 10 -10z m-540 -20 c0 -5 -4 -10 -10
-10 -5 0 -10 5 -10 10 0 6 5 10 10 10 6 0 10 -4 10 -10z m515 0 c3 -5 1 -10
-4 -10 -6 0 -11 5 -11 10 0 6 2 10 4 10 3 0 8 -4 11 -10z m275 0 c0 -5 -2 -10
-4 -10 -3 0 -8 5 -11 10 -3 6 -1 10 4 10 6 0 11 -4 11 -10z m-310 -20 c12 -8
11 -10 -7 -10 -13 0 -23 5 -23 10 0 13 11 13 30 0z m1340 -5 c0 -8 -4 -15 -10
-15 -5 0 -10 7 -10 15 0 8 5 15 10 15 6 0 10 -7 10 -15z m-606 -26 c-3 -5 -10
-7 -15 -3 -5 3 -7 10 -3 15 3 5 10 7 15 3 5 -3 7 -10 3 -15z m483 -1 c-3 -8
-6 -5 -6 6 -1 11 2 17 5 13 3 -3 4 -12 1 -19z m-1260 6 c-3 -3 -12 -4 -19 -1
-8 3 -5 6 6 6 11 1 17 -2 13 -5z m-1607 -24 c0 -5 -9 -10 -20 -10 -11 0 -20 5
-20 10 0 6 9 10 20 10 11 0 20 -4 20 -10z m1310 0 c0 -5 -9 -10 -20 -10 -11 0
-20 5 -20 10 0 6 9 10 20 10 11 0 20 -4 20 -10z m255 0 c-3 -5 -15 -10 -26
-10 -10 0 -19 -4 -19 -10 0 -6 -40 -10 -100 -10 -60 0 -100 4 -100 10 0 6 38
10 95 10 57 0 95 4 95 10 0 6 14 10 31 10 17 0 28 -4 24 -10z m865 0 c0 -5 5
-10 11 -10 14 0 39 -25 39 -39 0 -6 11 -11 25 -11 14 0 25 -4 25 -10 0 -5 -9
-10 -21 -10 -22 0 -49 22 -49 39 0 6 -9 11 -21 11 -19 0 -49 21 -49 34 0 3 9
6 20 6 11 0 20 -4 20 -10z m-2070 -44 c0 -11 -19 -15 -25 -6 -3 5 1 10 9 10 9
0 16 -2 16 -4z m-190 -26 c0 -5 -4 -10 -10 -10 -5 0 -10 5 -10 10 0 6 5 10 10
10 6 0 10 -4 10 -10z m160 0 c0 -5 -4 -10 -10 -10 -5 0 -10 5 -10 10 0 6 5 10
10 10 6 0 10 -4 10 -10z m2340 0 c0 -5 -4 -10 -10 -10 -5 0 -10 5 -10 10 0 6
5 10 10 10 6 0 10 -4 10 -10z m-2410 -20 c0 -5 -12 -10 -26 -10 -14 0 -23 4
-19 10 3 6 15 10 26 10 10 0 19 -4 19 -10z m2360 0 c0 -5 -16 -10 -35 -10 -19
0 -35 5 -35 10 0 6 16 10 35 10 19 0 35 -4 35 -10z m-1475 -25 c6 -2 -28 -4
-75 -4 -47 0 -79 3 -72 7 11 8 124 5 147 -3z m518 -2 c-29 -2 -78 -2 -110 0
-32 2 -8 3 52 3 61 0 87 -1 58 -3z m370 0 c-13 -2 -33 -2 -45 0 -13 2 -3 4 22
4 25 0 35 -2 23 -4z m375 0 c-42 -2 -114 -2 -160 0 -46 1 -11 3 77 3 88 0 125
-2 83 -3z m-2226 -126 c19 -25 30 -70 21 -93 -9 -23 -48 -64 -62 -64 -8 0 -9
5 -1 19 9 18 15 131 6 131 -1 0 -18 -5 -35 -11 -32 -11 -33 -13 -29 -58 3 -25
8 -54 12 -63 7 -15 4 -18 -18 -16 -50 4 -70 99 -32 150 30 41 107 43 138 5z
m226 5 c13 -17 12 -50 -3 -86 -6 -14 -5 -17 4 -12 9 6 12 -2 9 -30 -2 -32 -7
-40 -26 -42 -12 -2 -20 -8 -17 -13 7 -11 -95 -12 -110 -1 -5 4 -10 49 -10 99
0 90 1 93 25 103 36 14 112 3 128 -18z m191 17 c35 -12 36 -16 17 -41 -16 -22
-26 -23 -26 -4 0 10 -9 14 -25 13 -34 -3 -34 -19 1 -37 75 -40 76 -41 64 -55
-7 -8 -9 -19 -5 -25 3 -5 2 -10 -4 -10 -6 0 -8 -7 -4 -16 4 -11 2 -15 -7 -12
-8 2 -17 16 -21 31 -4 16 -3 25 2 21 5 -3 9 0 9 5 0 10 -33 16 -73 13 -12 -1
-23 10 -33 33 -18 45 -18 51 6 75 22 22 52 25 99 9z m157 -20 c-3 -17 -7 -59
-8 -93 l-1 -61 -7 50 -7 50 -1 -57 c-2 -48 -5 -58 -20 -58 -15 0 -17 9 -13 81
2 51 -1 85 -8 92 -20 20 -12 27 30 27 41 0 41 0 35 -31z m137 25 c50 -9 97
-57 97 -99 0 -42 -47 -82 -107 -91 -24 -3 -46 -4 -49 -2 -2 3 -6 41 -8 84 -2
44 -7 87 -11 97 -8 19 10 22 78 11z m209 -66 c-2 -40 -8 -77 -13 -82 -5 -6 -9
-21 -9 -34 0 -21 -2 -22 -15 -12 -11 9 -15 33 -15 85 0 52 -4 76 -15 85 -25
21 -17 30 29 30 l43 0 -5 -72z m190 67 c10 -4 13 -16 10 -35 -4 -26 -1 -30 19
-30 12 0 20 -3 16 -6 -3 -4 1 -13 9 -22 9 -8 11 -18 6 -21 -14 -9 -27 -55 -13
-47 13 9 14 -4 1 -24 -7 -11 -5 -17 8 -21 11 -5 5 -7 -15 -6 -27 0 -33 4 -33
21 0 23 -20 60 -20 38 0 -9 -5 -10 -19 -2 -28 14 -31 13 -32 -12 -1 -22 -1
-22 -10 2 -7 20 -7 17 -3 -12 5 -35 3 -38 -20 -38 -35 0 -40 15 -15 49 14 19
20 37 16 52 -4 14 1 31 14 48 13 16 18 33 14 48 -5 20 -2 23 24 23 16 0 36 -2
43 -5z m198 -5 c0 -7 6 -7 19 0 24 12 88 13 95 1 3 -5 0 -14 -8 -20 -8 -7 -16
-44 -20 -93 -4 -45 -8 -84 -10 -85 -10 -10 -35 14 -61 58 l-30 50 -7 -33 c-4
-21 -2 -35 5 -40 8 -5 7 -8 -3 -8 -10 0 -8 -6 8 -18 l23 -18 -45 -3 c-42 -2
-63 12 -33 22 13 4 17 110 5 165 -7 31 -7 32 27 32 19 0 35 -5 35 -10z m429
-5 c6 -7 3 -19 -9 -35 -11 -14 -20 -19 -20 -12 0 6 -9 12 -20 12 -17 0 -20 -7
-20 -41 0 -27 -4 -38 -11 -33 -9 5 -10 -8 -7 -45 3 -28 1 -51 -4 -51 -5 0 -7
4 -4 9 3 5 -1 11 -9 15 -11 4 -15 23 -15 76 0 56 -3 70 -15 70 -8 0 -15 -4
-15 -10 0 -21 -19 -9 -28 19 -10 29 -9 30 21 33 64 6 147 2 156 -7z m199 -11
c2 -11 -5 -27 -14 -35 -12 -9 -15 -10 -10 -1 4 6 3 12 -2 12 -16 0 -1 -83 19
-105 14 -16 15 -23 6 -36 -15 -20 -96 -33 -130 -20 -23 9 -25 13 -17 41 6 23
5 34 -7 46 -12 11 -13 18 -4 27 15 15 14 77 -1 77 -9 0 -9 3 1 9 8 5 46 8 85
8 64 -2 71 -4 74 -23z m194 21 c10 -4 13 -16 10 -35 -3 -20 0 -30 8 -30 10 0
50 -36 50 -46 0 -1 -10 0 -22 3 -17 3 -19 2 -9 -5 8 -6 11 -17 6 -32 -5 -15
-4 -20 4 -16 6 4 11 3 11 -3 0 -5 -5 -13 -11 -17 -8 -4 -7 -9 2 -15 9 -6 10
-9 2 -9 -26 0 -43 14 -43 36 0 13 -4 24 -10 24 -5 0 -10 -5 -10 -10 0 -7 -6
-7 -19 0 -37 19 -54 13 -49 -20 4 -27 2 -30 -16 -24 -29 9 -30 9 -11 38 11 16
15 35 11 50 -4 16 1 29 15 42 15 13 19 26 15 46 -5 25 -3 28 23 28 16 0 36 -2
43 -5z m501 -14 c9 -9 -12 -51 -26 -51 -5 0 -15 7 -24 15 -17 18 -38 15 -38
-5 0 -7 19 -20 43 -28 29 -9 42 -19 38 -28 -3 -8 0 -11 8 -8 24 9 12 -31 -16
-58 -15 -14 -26 -27 -23 -30 3 -2 -10 -2 -28 0 l-32 5 25 11 c30 13 50 35 49
56 0 12 -2 12 -6 1 -4 -11 -7 -11 -13 0 -5 7 -21 12 -37 12 -22 0 -34 8 -46
29 -23 40 -21 64 6 83 23 17 102 14 120 -4z m-232 -3 c38 -32 41 -46 19 -68
-23 -23 -35 -71 -17 -67 5 1 12 -4 15 -12 3 -9 0 -11 -9 -6 -11 6 -12 5 -1 -6
18 -19 15 -26 -10 -25 -17 1 -24 10 -31 39 -10 41 -37 51 -37 13 0 -27 -24
-51 -40 -41 -7 4 -9 17 -6 28 3 13 -1 25 -12 33 -12 9 -14 15 -5 26 12 14 11
56 -1 76 -13 21 110 30 135 10z m-2652 -80 c0 -38 -1 -40 -10 -19 -8 22 -4 61
7 61 2 0 4 -19 3 -42z m588 -53 c-4 -8 -1 -17 5 -21 7 -5 8 -2 3 6 -6 9 -4 11
5 5 10 -6 9 -11 -5 -22 -20 -14 -45 -17 -45 -5 1 25 15 52 27 52 9 0 13 -6 10
-15z m2198 -12 c6 -18 -10 -33 -37 -33 -21 0 -21 2 -7 34 12 26 33 25 44 -1z
m-2596 -52 c-15 -5 -22 6 -14 19 6 9 10 9 16 -1 5 -8 4 -15 -2 -18z m471 20
c0 -11 -40 -22 -53 -14 -5 3 -3 9 4 14 18 11 49 11 49 0z m-750 -156 c0 -19
-4 -35 -10 -35 -5 0 -10 16 -10 35 0 19 5 35 10 35 6 0 10 -16 10 -35z m1750
25 c0 -5 -2 -10 -4 -10 -3 0 -8 5 -11 10 -3 6 -1 10 4 10 6 0 11 -4 11 -10z
m-225 -40 c16 -7 12 -9 -18 -9 -23 -1 -36 3 -32 9 7 12 23 12 50 0z m130 0 c4
-6 -7 -10 -27 -10 -25 0 -29 3 -18 10 19 13 37 13 45 0z m1365 -101 c-15 -36
-26 -37 -25 -2 0 31 28 68 33 45 2 -7 -2 -27 -8 -43z m-2130 -64 c0 -50 4 -85
10 -85 6 0 10 -9 10 -20 0 -11 -4 -20 -10 -20 -6 0 -10 -35 -10 -85 0 -50 -4
-85 -10 -85 -5 0 -10 15 -10 33 0 44 -15 67 -25 38 -10 -31 -25 -26 -25 9 0
17 5 30 10 30 6 0 10 16 10 35 0 22 6 38 15 41 12 5 15 26 15 100 0 56 4 94
10 94 6 0 10 -35 10 -85z m-356 27 c5 -3 1 -9 -8 -14 -11 -6 -15 -16 -11 -29
4 -13 2 -19 -9 -19 -10 0 -16 9 -16 25 0 14 -4 25 -10 25 -5 0 -10 7 -10 15 0
12 7 14 28 9 15 -4 31 -9 36 -12z m576 -8 c0 -2 -7 -4 -15 -4 -8 0 -15 4 -15
10 0 5 7 7 15 4 8 -4 15 -8 15 -10z m940 -5 c0 -4 -7 -6 -15 -3 -8 4 -15 10
-15 15 0 4 7 6 15 3 8 -4 15 -10 15 -15z m610 -10 c0 -12 -7 -19 -20 -19 -14
0 -20 7 -20 23 0 18 2 19 10 7 8 -13 10 -12 10 3 0 10 5 15 10 12 6 -3 10 -15
10 -26z m-400 -43 c0 -14 7 -31 15 -40 8 -8 15 -22 15 -31 0 -9 -7 -23 -15
-31 -8 -9 -15 -26 -15 -40 0 -13 -4 -24 -10 -24 -5 0 -10 -22 -10 -50 0 -27
-4 -50 -10 -50 -5 0 -10 23 -10 50 0 28 -4 50 -10 50 -5 0 -10 7 -10 15 0 8 5
15 10 15 6 0 10 14 10 30 0 17 5 30 10 30 6 0 10 23 10 50 0 28 5 50 10 50 6
0 10 -11 10 -24z m-1145 -6 c3 -5 1 -10 -4 -10 -6 0 -11 5 -11 10 0 6 2 10 4
10 3 0 8 -4 11 -10z m95 0 c0 -5 -4 -10 -10 -10 -5 0 -10 5 -10 10 0 6 5 10
10 10 6 0 10 -4 10 -10z m876 -7 c11 -14 15 -15 22 -5 6 8 9 -4 10 -33 1 -25
-2 -45 -8 -45 -5 0 -10 7 -10 15 0 8 -4 15 -10 15 -5 0 -10 11 -10 25 0 14 -4
25 -10 25 -5 0 -10 5 -10 10 0 15 11 12 26 -7z m504 -14 c0 -12 -7 -19 -20
-19 -14 0 -20 7 -20 24 0 19 4 23 20 19 11 -3 20 -14 20 -24z m50 -18 c0 -40
-3 -50 -20 -54 -13 -3 -20 0 -20 9 0 8 5 14 10 14 6 0 10 15 10 33 0 30 6 47
17 47 2 0 3 -22 3 -49z m-2042 32 c-11 -3 -18 -14 -18 -29 0 -13 -3 -24 -6
-24 -8 0 -37 30 -33 34 15 12 47 25 59 25 11 -1 10 -3 -2 -6z m1370 -12 c36
-40 42 -51 42 -71 0 -11 -3 -20 -6 -20 -11 0 -34 29 -34 43 0 8 -11 26 -25 41
-17 18 -20 26 -10 26 8 0 23 -9 33 -19z m-921 -18 c4 -9 1 -19 -5 -21 -7 -2
-12 -10 -12 -18 0 -8 -4 -14 -10 -14 -14 0 -12 23 3 39 10 11 10 13 0 7 -14
-7 -18 6 -6 17 11 12 23 8 30 -10z m143 1 c0 -35 -55 -60 -66 -29 -10 24 7 41
22 21 11 -16 13 -16 19 3 7 25 25 28 25 5z m840 6 c0 -5 -2 -10 -4 -10 -3 0
-8 5 -11 10 -3 6 -1 10 4 10 6 0 11 -4 11 -10z m-1517 -29 c5 -22 -1 -33 -14
-25 -12 7 -12 44 0 44 5 0 11 -9 14 -19z m-373 -21 c0 -5 -4 -10 -10 -10 -5 0
-10 5 -10 10 0 6 5 10 10 10 6 0 10 -4 10 -10z m1443 -50 c3 -11 1 -23 -4 -26
-5 -3 -9 6 -9 20 0 31 6 34 13 6z m-643 -7 c0 -10 -4 -24 -9 -31 -7 -11 -10
-10 -15 3 -10 28 -7 45 9 45 8 0 15 -8 15 -17z m182 -2 c-12 -10 -22 -26 -22
-35 0 -9 -8 -24 -19 -35 -18 -18 -19 -18 -35 0 -9 11 -16 26 -16 34 0 8 -4 15
-10 15 -5 0 -10 7 -10 15 0 18 -1 18 38 4 25 -9 36 -8 54 5 31 22 46 20 20 -3z
m168 -23 c-23 -21 -50 -18 -50 6 0 8 12 16 28 18 40 5 46 -2 22 -24z m765 22
c3 -5 15 -10 26 -10 10 0 19 5 19 10 0 6 5 10 10 10 6 0 10 -7 10 -15 0 -8 -4
-15 -10 -15 -5 0 -10 -9 -10 -20 0 -11 -4 -20 -10 -20 -5 0 -10 -7 -10 -16 0
-27 -24 -9 -36 26 -6 19 -16 36 -23 38 -6 2 -9 8 -5 13 7 12 31 12 39 -1z
m255 -25 c0 -19 -4 -35 -10 -35 -5 0 -10 16 -10 35 0 19 5 35 10 35 6 0 10
-16 10 -35z m-432 13 c18 -18 15 -28 -8 -28 -13 0 -20 7 -20 20 0 23 10 26 28
8z m-1548 -18 c0 -11 -4 -20 -10 -20 -5 0 -10 9 -10 20 0 11 5 20 10 20 6 0
10 -9 10 -20z m180 -20 c0 -5 -4 -10 -10 -10 -5 0 -10 5 -10 10 0 6 5 10 10
10 6 0 10 -4 10 -10z m2060 -10 c0 -11 -4 -20 -8 -20 -5 0 -14 -10 -20 -22
-10 -23 -11 -23 -11 5 -1 15 4 27 9 27 6 0 10 7 10 15 0 8 5 15 10 15 6 0 10
-9 10 -20z m370 -20 c0 -5 -4 -10 -10 -10 -5 0 -10 5 -10 10 0 6 5 10 10 10 6
0 10 -4 10 -10z m-1980 -49 c0 -6 -4 -13 -10 -16 -5 -3 -10 1 -10 9 0 9 5 16
10 16 6 0 10 -4 10 -9z m840 -35 c0 -7 9 -32 21 -55 11 -24 18 -45 15 -49 -3
-3 -6 0 -6 6 0 7 -7 12 -15 12 -8 0 -15 -7 -15 -15 0 -13 -15 -42 -36 -74 -2
-2 -10 4 -19 12 -12 13 -14 23 -6 49 5 18 10 27 10 21 1 -7 5 -13 10 -13 5 0
13 29 16 65 4 36 11 62 16 59 5 -3 9 -11 9 -18z m140 -77 c0 -52 -2 -59 -19
-59 -11 0 -23 -4 -26 -10 -3 -5 -15 -10 -26 -10 -29 0 -23 32 11 60 18 15 25
27 18 31 -6 4 -8 18 -4 32 4 19 11 24 26 20 17 -5 20 -14 20 -64z m-595 41
c-3 -5 -1 -10 5 -10 21 0 49 -44 50 -77 0 -26 -4 -33 -20 -33 -13 0 -20 7 -20
20 0 11 -7 23 -15 26 -8 4 -15 17 -15 30 0 13 -6 24 -12 24 -8 0 -5 7 6 15 23
17 30 19 21 5z m-111 -34 c4 -22 14 -37 26 -41 11 -4 20 -15 20 -26 0 -21 -16
-26 -23 -6 -2 7 -8 8 -13 3 -5 -5 -4 -11 4 -13 6 -3 12 -17 12 -33 0 -15 7
-33 15 -40 8 -7 15 -19 15 -26 0 -16 2 -16 24 -8 17 7 22 34 6 34 -5 0 -10 5
-10 10 0 15 36 12 49 -4 9 -10 6 -24 -11 -57 -12 -24 -23 -45 -24 -47 -4 -9
-34 13 -34 24 0 8 -7 17 -16 21 -11 4 -14 13 -10 29 5 17 2 24 -9 24 -8 0 -15
9 -15 20 0 11 -6 23 -14 26 -8 3 -12 12 -9 20 3 8 -2 20 -10 27 -12 8 -15 24
-13 52 5 49 3 45 20 45 8 0 17 -15 20 -34z m-294 -2 c0 -9 -11 -14 -31 -14
-17 0 -28 4 -24 10 3 6 13 10 21 10 8 0 14 5 14 11 0 5 5 7 10 4 6 -3 10 -13
10 -21z m-79 6 c5 0 9 -4 9 -10 0 -5 -11 -10 -25 -10 -16 0 -25 6 -25 16 0 11
5 14 16 10 9 -3 20 -6 25 -6z m1449 -7 c0 -8 -13 -13 -30 -13 -17 0 -30 -5
-31 -12 0 -10 -2 -10 -6 0 -2 6 -13 12 -24 12 -10 0 -19 6 -19 13 0 8 18 12
55 12 37 0 55 -4 55 -12z m-395 -93 c3 -5 -1 -10 -9 -10 -9 0 -16 5 -16 10 0
6 4 10 9 10 6 0 13 -4 16 -10z m-905 -4 c0 -3 -4 -8 -10 -11 -5 -3 -10 -1 -10
4 0 6 5 11 10 11 6 0 10 -2 10 -4z m580 -36 c0 -16 -4 -31 -9 -34 -4 -3 -12
-29 -16 -58 -6 -48 -8 -51 -17 -28 -6 14 -15 34 -20 44 -8 14 -6 21 6 28 9 5
16 15 16 23 0 23 22 65 31 59 5 -3 9 -18 9 -34z m300 0 c0 -11 -4 -20 -10 -20
-5 0 -10 -11 -10 -25 0 -14 -4 -25 -10 -25 -5 0 -10 -9 -10 -20 0 -10 -9 -24
-21 -30 -17 -10 -21 -8 -26 9 -3 12 -9 21 -14 21 -5 0 -9 11 -9 25 0 14 -4 25
-10 25 -5 0 -10 5 -10 10 0 6 9 10 20 10 11 0 20 -6 20 -14 0 -8 4 -17 9 -21
13 -7 61 38 61 59 0 9 5 16 10 16 6 0 10 -9 10 -20z m-280 -60 c0 -5 -4 -10
-10 -10 -5 0 -10 5 -10 10 0 6 5 10 10 10 6 0 10 -4 10 -10z m-90 -85 c0 -8
-4 -17 -10 -20 -6 -4 -10 5 -10 20 0 15 4 24 10 20 6 -3 10 -12 10 -20z m107
-7 c-3 -7 -5 -2 -5 12 0 14 2 19 5 13 2 -7 2 -19 0 -25z m-437 -32 c0 -8 -4
-18 -10 -21 -5 -3 -10 3 -10 14 0 12 5 21 10 21 6 0 10 -6 10 -14z m745 -36
c3 -5 1 -10 -4 -10 -6 0 -11 5 -11 10 0 6 2 10 4 10 3 0 8 -4 11 -10z m-322
-90 c-4 -17 -12 -19 -47 -16 -28 2 -42 9 -44 20 -4 19 9 21 26 4 8 -8 17 -7
34 4 28 19 38 15 31 -12z"/>
<path d="M2270 3230 c0 -5 7 -10 15 -10 8 0 15 5 15 10 0 6 -7 10 -15 10 -8 0
-15 -4 -15 -10z"/>
<path d="M1580 2970 c0 -5 5 -10 10 -10 6 0 10 5 10 10 0 6 -4 10 -10 10 -5 0
-10 -4 -10 -10z"/>
<path d="M800 2130 c0 -5 7 -10 15 -10 8 0 15 5 15 10 0 6 -7 10 -15 10 -8 0
-15 -4 -15 -10z"/>
<path d="M3190 2130 c0 -5 5 -10 10 -10 6 0 10 5 10 10 0 6 -4 10 -10 10 -5 0
-10 -4 -10 -10z"/>
<path d="M910 1645 c0 -28 3 -30 32 -14 21 11 21 12 3 25 -27 20 -35 17 -35
-11z"/>
<path d="M892 1560 c0 -19 2 -27 5 -17 2 9 2 25 0 35 -3 9 -5 1 -5 -18z"/>
<path d="M910 1557 c0 -13 3 -27 6 -30 11 -10 41 11 47 33 4 17 0 20 -24 20
-24 0 -29 -4 -29 -23z"/>
<path d="M1483 1663 c-15 -6 -18 -133 -4 -133 33 0 50 60 35 118 -6 23 -10 24
-31 15z"/>
<path d="M1453 1575 c0 -33 2 -45 4 -27 2 18 2 45 0 60 -2 15 -4 0 -4 -33z"/>
<path d="M1840 1611 c0 -6 5 -13 10 -16 6 -3 10 1 10 9 0 9 -4 16 -10 16 -5 0
-10 -4 -10 -9z"/>
<path d="M2095 1669 c4 -13 14 -30 22 -37 13 -13 14 -11 11 19 -2 23 -9 35
-21 37 -16 3 -18 0 -12 -19z"/>
<path d="M2618 1683 c6 -2 18 -2 25 0 6 3 1 5 -13 5 -14 0 -19 -2 -12 -5z"/>
<path d="M2620 1644 c0 -9 7 -14 17 -12 25 5 28 28 4 28 -12 0 -21 -6 -21 -16z"/>
<path d="M2643 1602 c-19 -3 -23 -10 -23 -38 0 -32 2 -35 23 -29 32 10 37 18
29 45 -5 19 -13 24 -29 22z"/>
<path d="M2850 1616 c0 -2 7 -9 15 -16 12 -10 15 -10 15 4 0 9 -7 16 -15 16
-8 0 -15 -2 -15 -4z"/>
<path d="M3098 1655 c4 -36 19 -44 40 -23 17 17 15 38 -4 38 -8 0 -12 5 -9 10
3 6 -2 10 -12 10 -16 0 -18 -6 -15 -35z"/>
</g>
</svg>
